<svg width="100" height="100" viewBox="0 0 100 100" fill="none" xmlns="http://www.w3.org/2000/svg">
<g filter="url(#filter0_d_29_124)">
<path d="M27.5 26.1986C27.5 25.1448 28.0529 24.1683 28.9565 23.6261L34.2875 20.4275C34.7537 20.1478 35.2872 20 35.831 20H47.8073C48.5733 20 49.3102 20.293 49.8671 20.819L58 28.5L71.1911 43.1045C71.7102 43.6791 71.9869 44.4322 71.9634 45.2062L71.0437 75.557C71.0161 76.469 70.575 77.3188 69.8451 77.8662L67.8 79.4C67.2807 79.7895 66.6491 80 66 80H34.044C33.6843 80 33.3275 79.9353 32.9906 79.809L30.7402 78.9651C29.9502 78.6688 29.3214 78.0536 29.0081 77.2702L27.7146 74.0364C27.5728 73.6821 27.5 73.3039 27.5 72.9223V26.1986Z" fill="#CECECE"/>
</g>
<path d="M72.9832 42.9527C72.9753 42.8398 72.9544 42.7308 72.9191 42.6217C72.9035 42.578 72.8918 42.534 72.8721 42.4888C72.8095 42.3492 72.7298 42.2162 72.619 42.1033C72.619 42.102 72.6178 42.1006 72.6178 42.1006L50.3438 19.4085C50.2316 19.2941 50.0984 19.213 49.9602 19.1479C49.9223 19.1306 49.8846 19.1201 49.8453 19.1066C49.7344 19.0668 49.6207 19.0428 49.5034 19.0362C49.476 19.0335 49.4499 19.0189 49.4225 19.0189H34.7033C29.9035 19.0189 26 22.997 26 27.8873V73.1142C26 78.0044 29.9047 81.9811 34.7031 81.9811H64.2969C69.0953 81.9811 73 78.0044 73 73.1142V43.0417C73 43.0111 72.9844 42.9833 72.9832 42.9527ZM50.7249 23.5581L68.5447 41.7121H56.818C53.4575 41.7121 50.7249 38.9281 50.7249 35.5043V23.5581ZM64.2969 79.3205H34.7033C31.3428 79.3205 28.6102 76.535 28.6102 73.1127V27.8873C28.6102 24.4635 31.3443 21.6782 34.7033 21.6782H48.1149V35.5046C48.1149 40.3948 52.0195 44.3715 56.818 44.3715H70.39V73.113C70.39 76.5365 67.6574 79.3205 64.2969 79.3205Z" fill="#010002"/>
<defs>
<filter id="filter0_d_29_124" x="23.5" y="20" width="52.4648" height="68" filterUnits="userSpaceOnUse" color-interpolation-filters="sRGB">
<feFlood flood-opacity="0" result="BackgroundImageFix"/>
<feColorMatrix in="SourceAlpha" type="matrix" values="0 0 0 0 0 0 0 0 0 0 0 0 0 0 0 0 0 0 127 0" result="hardAlpha"/>
<feOffset dy="4"/>
<feGaussianBlur stdDeviation="2"/>
<feComposite in2="hardAlpha" operator="out"/>
<feColorMatrix type="matrix" values="0 0 0 0 0 0 0 0 0 0 0 0 0 0 0 0 0 0 0.25 0"/>
<feBlend mode="normal" in2="BackgroundImageFix" result="effect1_dropShadow_29_124"/>
<feBlend mode="normal" in="SourceGraphic" in2="effect1_dropShadow_29_124" result="shape"/>
</filter>
</defs>
</svg>
